<svg xmlns="http://www.w3.org/2000/svg" xmlns:xlink="http://www.w3.org/1999/xlink" width="600" viewBox="0 0 450 74.999997" height="100" preserveAspectRatio="xMidYMid meet"><defs><g></g><clipPath id="c0c4aa0e84"><path d="M 7.5 7.5 L 67.5 7.5 L 67.5 67.5 L 7.5 67.5 Z M 7.5 7.5 " clip-rule="nonzero"></path></clipPath></defs><rect x="-45" width="540" fill="#ffffff" y="-7.5" height="89.999996" fill-opacity="1"></rect><rect x="-45" width="540" fill="#ffffff" y="-7.5" height="89.999996" fill-opacity="1"></rect><g clip-path="url(#c0c4aa0e84)"><path fill="#5a3fec" d="M 37.5 7.5 L 28.425781 28.425781 L 7.5 37.5 L 28.425781 46.574219 L 37.5 67.5 L 46.574219 46.574219 L 67.5 37.5 L 46.574219 28.425781 L 37.5 7.5 " fill-opacity="1" fill-rule="nonzero"></path></g><g fill="#000000" fill-opacity="1"><g transform="translate(84.270309, 57.450005)"><g><path d="M 4.015625 0 L 4.015625 -40.734375 L 11.390625 -40.734375 L 11.390625 -23.484375 L 30.265625 -23.484375 L 30.265625 -40.734375 L 37.671875 -40.734375 L 37.671875 0 L 30.265625 0 L 30.265625 -17.296875 L 11.390625 -17.296875 L 11.390625 0 Z M 4.015625 0 "></path></g></g></g><g fill="#000000" fill-opacity="1"><g transform="translate(123.126388, 57.450005)"><g><path d="M 17.21875 0.59375 C 14.15625 0.59375 11.515625 -0.0390625 9.296875 -1.3125 C 7.078125 -2.59375 5.367188 -4.410156 4.171875 -6.765625 C 2.984375 -9.117188 2.390625 -11.894531 2.390625 -15.09375 C 2.390625 -18.238281 2.988281 -21 4.1875 -23.375 C 5.382812 -25.757812 7.0625 -27.613281 9.21875 -28.9375 C 11.382812 -30.269531 13.925781 -30.9375 16.84375 -30.9375 C 18.726562 -30.9375 20.507812 -30.632812 22.1875 -30.03125 C 23.863281 -29.4375 25.347656 -28.507812 26.640625 -27.25 C 27.929688 -25.988281 28.945312 -24.382812 29.6875 -22.4375 C 30.425781 -20.5 30.796875 -18.191406 30.796875 -15.515625 L 30.796875 -13.296875 L 5.765625 -13.296875 L 5.765625 -18.15625 L 23.90625 -18.15625 C 23.894531 -19.53125 23.597656 -20.757812 23.015625 -21.84375 C 22.429688 -22.925781 21.617188 -23.773438 20.578125 -24.390625 C 19.535156 -25.015625 18.320312 -25.328125 16.9375 -25.328125 C 15.46875 -25.328125 14.175781 -24.972656 13.0625 -24.265625 C 11.945312 -23.554688 11.082031 -22.628906 10.46875 -21.484375 C 9.851562 -20.335938 9.539062 -19.082031 9.53125 -17.71875 L 9.53125 -13.484375 C 9.53125 -11.703125 9.851562 -10.175781 10.5 -8.90625 C 11.144531 -7.644531 12.050781 -6.679688 13.21875 -6.015625 C 14.382812 -5.347656 15.753906 -5.015625 17.328125 -5.015625 C 18.367188 -5.015625 19.3125 -5.160156 20.15625 -5.453125 C 21.007812 -5.753906 21.75 -6.195312 22.375 -6.78125 C 23 -7.363281 23.46875 -8.085938 23.78125 -8.953125 L 30.5 -8.1875 C 30.082031 -6.414062 29.28125 -4.867188 28.09375 -3.546875 C 26.90625 -2.234375 25.390625 -1.210938 23.546875 -0.484375 C 21.703125 0.234375 19.59375 0.59375 17.21875 0.59375 Z M 17.21875 0.59375 "></path></g></g></g><g fill="#000000" fill-opacity="1"><g transform="translate(153.512065, 57.450005)"><g><path d="M 3.703125 0 L 3.703125 -30.546875 L 10.671875 -30.546875 L 10.671875 -25.453125 L 11 -25.453125 C 11.550781 -27.210938 12.503906 -28.570312 13.859375 -29.53125 C 15.222656 -30.5 16.78125 -30.984375 18.53125 -30.984375 C 18.925781 -30.984375 19.375 -30.96875 19.875 -30.9375 C 20.375 -30.90625 20.789062 -30.851562 21.125 -30.78125 L 21.125 -24.15625 C 20.8125 -24.269531 20.328125 -24.367188 19.671875 -24.453125 C 19.015625 -24.535156 18.382812 -24.578125 17.78125 -24.578125 C 16.46875 -24.578125 15.289062 -24.296875 14.25 -23.734375 C 13.207031 -23.171875 12.382812 -22.390625 11.78125 -21.390625 C 11.1875 -20.398438 10.890625 -19.253906 10.890625 -17.953125 L 10.890625 0 Z M 3.703125 0 "></path></g></g></g><g fill="#000000" fill-opacity="1"><g transform="translate(172.92201, 57.450005)"><g><path d="M 17.015625 0.59375 C 14.035156 0.59375 11.453125 -0.0625 9.265625 -1.375 C 7.078125 -2.6875 5.382812 -4.519531 4.1875 -6.875 C 2.988281 -9.238281 2.390625 -12 2.390625 -15.15625 C 2.390625 -18.3125 2.988281 -21.070312 4.1875 -23.4375 C 5.382812 -25.8125 7.078125 -27.65625 9.265625 -28.96875 C 11.453125 -30.28125 14.035156 -30.9375 17.015625 -30.9375 C 20.003906 -30.9375 22.59375 -30.28125 24.78125 -28.96875 C 26.96875 -27.65625 28.660156 -25.8125 29.859375 -23.4375 C 31.054688 -21.070312 31.65625 -18.3125 31.65625 -15.15625 C 31.65625 -12 31.054688 -9.238281 29.859375 -6.875 C 28.660156 -4.519531 26.96875 -2.6875 24.78125 -1.375 C 22.59375 -0.0625 20.003906 0.59375 17.015625 0.59375 Z M 17.0625 -5.171875 C 18.675781 -5.171875 20.023438 -5.617188 21.109375 -6.515625 C 22.203125 -7.410156 23.015625 -8.613281 23.546875 -10.125 C 24.085938 -11.632812 24.359375 -13.316406 24.359375 -15.171875 C 24.359375 -17.046875 24.085938 -18.738281 23.546875 -20.25 C 23.015625 -21.769531 22.203125 -22.976562 21.109375 -23.875 C 20.023438 -24.78125 18.675781 -25.234375 17.0625 -25.234375 C 15.40625 -25.234375 14.03125 -24.78125 12.9375 -23.875 C 11.84375 -22.976562 11.023438 -21.769531 10.484375 -20.25 C 9.953125 -18.738281 9.6875 -17.046875 9.6875 -15.171875 C 9.6875 -13.316406 9.953125 -11.632812 10.484375 -10.125 C 11.023438 -8.613281 11.84375 -7.410156 12.9375 -6.515625 C 14.03125 -5.617188 15.40625 -5.171875 17.0625 -5.171875 Z M 17.0625 -5.171875 "></path></g></g></g><g fill="#000000" fill-opacity="1"><g transform="translate(204.16269, 57.450005)"><g></g></g></g><g fill="#000000" fill-opacity="1"><g transform="translate(215.261307, 57.450005)"><g><path d="M 4.015625 -40.734375 L 13.046875 -40.734375 L 25.140625 -11.21875 L 25.609375 -11.21875 L 37.703125 -40.734375 L 46.734375 -40.734375 L 46.734375 0 L 39.65625 0 L 39.65625 -27.984375 L 39.28125 -27.984375 L 28.015625 -0.125 L 22.734375 -0.125 L 11.46875 -28.046875 L 11.09375 -28.046875 L 11.09375 0 L 4.015625 0 Z M 4.015625 -40.734375 "></path></g></g></g><g fill="#000000" fill-opacity="1"><g transform="translate(263.204174, 57.450005)"><g><path d="M 12.484375 0.609375 C 10.546875 0.609375 8.804688 0.265625 7.265625 -0.421875 C 5.722656 -1.117188 4.503906 -2.148438 3.609375 -3.515625 C 2.710938 -4.878906 2.265625 -6.566406 2.265625 -8.578125 C 2.265625 -10.296875 2.582031 -11.71875 3.21875 -12.84375 C 3.851562 -13.96875 4.722656 -14.867188 5.828125 -15.546875 C 6.929688 -16.222656 8.175781 -16.738281 9.5625 -17.09375 C 10.945312 -17.445312 12.378906 -17.703125 13.859375 -17.859375 C 15.648438 -18.046875 17.101562 -18.210938 18.21875 -18.359375 C 19.332031 -18.515625 20.144531 -18.753906 20.65625 -19.078125 C 21.164062 -19.398438 21.421875 -19.910156 21.421875 -20.609375 L 21.421875 -20.71875 C 21.421875 -22.21875 20.972656 -23.378906 20.078125 -24.203125 C 19.191406 -25.023438 17.914062 -25.4375 16.25 -25.4375 C 14.488281 -25.4375 13.09375 -25.050781 12.0625 -24.28125 C 11.03125 -23.507812 10.335938 -22.601562 9.984375 -21.5625 L 3.265625 -22.515625 C 3.796875 -24.367188 4.671875 -25.921875 5.890625 -27.171875 C 7.109375 -28.421875 8.597656 -29.359375 10.359375 -29.984375 C 12.117188 -30.617188 14.066406 -30.9375 16.203125 -30.9375 C 17.679688 -30.9375 19.148438 -30.765625 20.609375 -30.421875 C 22.066406 -30.078125 23.394531 -29.507812 24.59375 -28.71875 C 25.800781 -27.9375 26.769531 -26.867188 27.5 -25.515625 C 28.238281 -24.160156 28.609375 -22.46875 28.609375 -20.4375 L 28.609375 0 L 21.703125 0 L 21.703125 -4.203125 L 21.453125 -4.203125 C 21.015625 -3.347656 20.398438 -2.550781 19.609375 -1.8125 C 18.828125 -1.082031 17.84375 -0.492188 16.65625 -0.046875 C 15.46875 0.390625 14.078125 0.609375 12.484375 0.609375 Z M 14.359375 -4.671875 C 15.804688 -4.671875 17.054688 -4.957031 18.109375 -5.53125 C 19.171875 -6.113281 19.988281 -6.878906 20.5625 -7.828125 C 21.144531 -8.785156 21.4375 -9.828125 21.4375 -10.953125 L 21.4375 -14.5625 C 21.207031 -14.375 20.820312 -14.195312 20.28125 -14.03125 C 19.75 -13.875 19.148438 -13.734375 18.484375 -13.609375 C 17.828125 -13.492188 17.171875 -13.390625 16.515625 -13.296875 C 15.867188 -13.210938 15.304688 -13.132812 14.828125 -13.0625 C 13.753906 -12.914062 12.789062 -12.675781 11.9375 -12.34375 C 11.09375 -12.019531 10.425781 -11.5625 9.9375 -10.96875 C 9.445312 -10.375 9.203125 -9.613281 9.203125 -8.6875 C 9.203125 -7.363281 9.6875 -6.363281 10.65625 -5.6875 C 11.625 -5.007812 12.859375 -4.671875 14.359375 -4.671875 Z M 14.359375 -4.671875 "></path></g></g></g><g fill="#000000" fill-opacity="1"><g transform="translate(292.575788, 57.450005)"><g><path d="M 3.703125 0 L 3.703125 -30.546875 L 10.671875 -30.546875 L 10.671875 -25.453125 L 11 -25.453125 C 11.550781 -27.210938 12.503906 -28.570312 13.859375 -29.53125 C 15.222656 -30.5 16.78125 -30.984375 18.53125 -30.984375 C 18.925781 -30.984375 19.375 -30.96875 19.875 -30.9375 C 20.375 -30.90625 20.789062 -30.851562 21.125 -30.78125 L 21.125 -24.15625 C 20.8125 -24.269531 20.328125 -24.367188 19.671875 -24.453125 C 19.015625 -24.535156 18.382812 -24.578125 17.78125 -24.578125 C 16.46875 -24.578125 15.289062 -24.296875 14.25 -23.734375 C 13.207031 -23.171875 12.382812 -22.390625 11.78125 -21.390625 C 11.1875 -20.398438 10.890625 -19.253906 10.890625 -17.953125 L 10.890625 0 Z M 3.703125 0 "></path></g></g></g><g fill="#000000" fill-opacity="1"><g transform="translate(311.985744, 57.450005)"><g><path d="M 10.265625 -9.578125 L 10.234375 -18.28125 L 11.390625 -18.28125 L 22.375 -30.546875 L 30.78125 -30.546875 L 17.28125 -15.515625 L 15.796875 -15.515625 Z M 3.703125 0 L 3.703125 -40.734375 L 10.890625 -40.734375 L 10.890625 0 Z M 22.875 0 L 12.921875 -13.90625 L 17.78125 -18.96875 L 31.484375 0 Z M 22.875 0 "></path></g></g></g><g fill="#000000" fill-opacity="1"><g transform="translate(341.039224, 57.450005)"><g><path d="M 17.21875 0.59375 C 14.15625 0.59375 11.515625 -0.0390625 9.296875 -1.3125 C 7.078125 -2.59375 5.367188 -4.410156 4.171875 -6.765625 C 2.984375 -9.117188 2.390625 -11.894531 2.390625 -15.09375 C 2.390625 -18.238281 2.988281 -21 4.1875 -23.375 C 5.382812 -25.757812 7.0625 -27.613281 9.21875 -28.9375 C 11.382812 -30.269531 13.925781 -30.9375 16.84375 -30.9375 C 18.726562 -30.9375 20.507812 -30.632812 22.1875 -30.03125 C 23.863281 -29.4375 25.347656 -28.507812 26.640625 -27.25 C 27.929688 -25.988281 28.945312 -24.382812 29.6875 -22.4375 C 30.425781 -20.5 30.796875 -18.191406 30.796875 -15.515625 L 30.796875 -13.296875 L 5.765625 -13.296875 L 5.765625 -18.15625 L 23.90625 -18.15625 C 23.894531 -19.53125 23.597656 -20.757812 23.015625 -21.84375 C 22.429688 -22.925781 21.617188 -23.773438 20.578125 -24.390625 C 19.535156 -25.015625 18.320312 -25.328125 16.9375 -25.328125 C 15.46875 -25.328125 14.175781 -24.972656 13.0625 -24.265625 C 11.945312 -23.554688 11.082031 -22.628906 10.46875 -21.484375 C 9.851562 -20.335938 9.539062 -19.082031 9.53125 -17.71875 L 9.53125 -13.484375 C 9.53125 -11.703125 9.851562 -10.175781 10.5 -8.90625 C 11.144531 -7.644531 12.050781 -6.679688 13.21875 -6.015625 C 14.382812 -5.347656 15.753906 -5.015625 17.328125 -5.015625 C 18.367188 -5.015625 19.3125 -5.160156 20.15625 -5.453125 C 21.007812 -5.753906 21.75 -6.195312 22.375 -6.78125 C 23 -7.363281 23.46875 -8.085938 23.78125 -8.953125 L 30.5 -8.1875 C 30.082031 -6.414062 29.28125 -4.867188 28.09375 -3.546875 C 26.90625 -2.234375 25.390625 -1.210938 23.546875 -0.484375 C 21.703125 0.234375 19.59375 0.59375 17.21875 0.59375 Z M 17.21875 0.59375 "></path></g></g></g><g fill="#000000" fill-opacity="1"><g transform="translate(371.42491, 57.450005)"><g><path d="M 18.953125 -30.546875 L 18.953125 -24.984375 L 1.390625 -24.984375 L 1.390625 -30.546875 Z M 5.734375 -37.859375 L 12.921875 -37.859375 L 12.921875 -9.1875 C 12.921875 -8.21875 13.070312 -7.476562 13.375 -6.96875 C 13.675781 -6.457031 14.070312 -6.109375 14.5625 -5.921875 C 15.050781 -5.734375 15.59375 -5.640625 16.1875 -5.640625 C 16.632812 -5.640625 17.046875 -5.671875 17.421875 -5.734375 C 17.804688 -5.804688 18.097656 -5.867188 18.296875 -5.921875 L 19.515625 -0.296875 C 19.128906 -0.160156 18.578125 -0.015625 17.859375 0.140625 C 17.148438 0.296875 16.285156 0.390625 15.265625 0.421875 C 13.460938 0.472656 11.835938 0.195312 10.390625 -0.40625 C 8.953125 -1.007812 7.8125 -1.945312 6.96875 -3.21875 C 6.125 -4.488281 5.710938 -6.082031 5.734375 -8 Z M 5.734375 -37.859375 "></path></g></g></g><g fill="#000000" fill-opacity="1"><g transform="translate(389.900342, 57.450005)"><g><path d="M 17.21875 0.59375 C 14.15625 0.59375 11.515625 -0.0390625 9.296875 -1.3125 C 7.078125 -2.59375 5.367188 -4.410156 4.171875 -6.765625 C 2.984375 -9.117188 2.390625 -11.894531 2.390625 -15.09375 C 2.390625 -18.238281 2.988281 -21 4.1875 -23.375 C 5.382812 -25.757812 7.0625 -27.613281 9.21875 -28.9375 C 11.382812 -30.269531 13.925781 -30.9375 16.84375 -30.9375 C 18.726562 -30.9375 20.507812 -30.632812 22.1875 -30.03125 C 23.863281 -29.4375 25.347656 -28.507812 26.640625 -27.25 C 27.929688 -25.988281 28.945312 -24.382812 29.6875 -22.4375 C 30.425781 -20.5 30.796875 -18.191406 30.796875 -15.515625 L 30.796875 -13.296875 L 5.765625 -13.296875 L 5.765625 -18.15625 L 23.90625 -18.15625 C 23.894531 -19.53125 23.597656 -20.757812 23.015625 -21.84375 C 22.429688 -22.925781 21.617188 -23.773438 20.578125 -24.390625 C 19.535156 -25.015625 18.320312 -25.328125 16.9375 -25.328125 C 15.46875 -25.328125 14.175781 -24.972656 13.0625 -24.265625 C 11.945312 -23.554688 11.082031 -22.628906 10.46875 -21.484375 C 9.851562 -20.335938 9.539062 -19.082031 9.53125 -17.71875 L 9.53125 -13.484375 C 9.53125 -11.703125 9.851562 -10.175781 10.5 -8.90625 C 11.144531 -7.644531 12.050781 -6.679688 13.21875 -6.015625 C 14.382812 -5.347656 15.753906 -5.015625 17.328125 -5.015625 C 18.367188 -5.015625 19.3125 -5.160156 20.15625 -5.453125 C 21.007812 -5.753906 21.75 -6.195312 22.375 -6.78125 C 23 -7.363281 23.46875 -8.085938 23.78125 -8.953125 L 30.5 -8.1875 C 30.082031 -6.414062 29.28125 -4.867188 28.09375 -3.546875 C 26.90625 -2.234375 25.390625 -1.210938 23.546875 -0.484375 C 21.703125 0.234375 19.59375 0.59375 17.21875 0.59375 Z M 17.21875 0.59375 "></path></g></g></g><g fill="#000000" fill-opacity="1"><g transform="translate(420.286028, 57.450005)"><g><path d="M 3.703125 0 L 3.703125 -30.546875 L 10.671875 -30.546875 L 10.671875 -25.453125 L 11 -25.453125 C 11.550781 -27.210938 12.503906 -28.570312 13.859375 -29.53125 C 15.222656 -30.5 16.78125 -30.984375 18.53125 -30.984375 C 18.925781 -30.984375 19.375 -30.96875 19.875 -30.9375 C 20.375 -30.90625 20.789062 -30.851562 21.125 -30.78125 L 21.125 -24.15625 C 20.8125 -24.269531 20.328125 -24.367188 19.671875 -24.453125 C 19.015625 -24.535156 18.382812 -24.578125 17.78125 -24.578125 C 16.46875 -24.578125 15.289062 -24.296875 14.25 -23.734375 C 13.207031 -23.171875 12.382812 -22.390625 11.78125 -21.390625 C 11.1875 -20.398438 10.890625 -19.253906 10.890625 -17.953125 L 10.890625 0 Z M 3.703125 0 "></path></g></g></g></svg>