<svg xmlns="http://www.w3.org/2000/svg" xmlns:xlink="http://www.w3.org/1999/xlink" width="300" viewBox="0 0 224.87999 74.999997" height="100" preserveAspectRatio="xMidYMid meet"><defs><g></g><clipPath id="d7bad4df81"><path d="M 0 0.0195312 L 224.761719 0.0195312 L 224.761719 74.980469 L 0 74.980469 Z M 0 0.0195312 " clip-rule="nonzero"></path></clipPath></defs><g clip-path="url(#d7bad4df81)"><path fill="#ffffff" d="M 0 0.0195312 L 224.878906 0.0195312 L 224.878906 74.980469 L 0 74.980469 Z M 0 0.0195312 " fill-opacity="1" fill-rule="nonzero"></path><path fill="#ffffff" d="M 0 0.0195312 L 224.878906 0.0195312 L 224.878906 74.980469 L 0 74.980469 Z M 0 0.0195312 " fill-opacity="1" fill-rule="nonzero"></path></g><g fill="#000000" fill-opacity="1"><g transform="translate(5.094937, 46.320284)"><g><path d="M 2.765625 0 L 2.765625 -20.984375 L 6.296875 -20.984375 L 6.296875 -11.875 L 17.421875 -11.875 L 17.421875 -20.984375 L 20.953125 -20.984375 L 20.953125 0 L 17.421875 0 L 17.421875 -8.703125 L 6.296875 -8.703125 L 6.296875 0 Z M 2.765625 0 "></path></g></g></g><g fill="#000000" fill-opacity="1"><g transform="translate(28.812256, 46.320284)"><g><path d="M 9.109375 -16.078125 C 11.628906 -16.078125 13.515625 -15.363281 14.765625 -13.9375 C 16.015625 -12.519531 16.640625 -10.523438 16.640625 -7.953125 C 16.640625 -7.691406 16.617188 -7.257812 16.578125 -6.65625 L 4.53125 -6.65625 C 4.8125 -5.414062 5.390625 -4.441406 6.265625 -3.734375 C 7.148438 -3.023438 8.21875 -2.671875 9.46875 -2.671875 C 10.332031 -2.671875 11.15625 -2.828125 11.9375 -3.140625 C 12.71875 -3.460938 13.394531 -3.925781 13.96875 -4.53125 L 15.796875 -2.578125 C 15.003906 -1.722656 14.046875 -1.054688 12.921875 -0.578125 C 11.804688 -0.109375 10.566406 0.125 9.203125 0.125 C 7.585938 0.125 6.164062 -0.210938 4.9375 -0.890625 C 3.707031 -1.578125 2.75 -2.53125 2.0625 -3.75 C 1.382812 -4.96875 1.046875 -6.367188 1.046875 -7.953125 C 1.046875 -9.523438 1.382812 -10.925781 2.0625 -12.15625 C 2.75 -13.382812 3.707031 -14.34375 4.9375 -15.03125 C 6.164062 -15.726562 7.554688 -16.078125 9.109375 -16.078125 Z M 13.578125 -9.171875 C 13.523438 -10.453125 13.097656 -11.460938 12.296875 -12.203125 C 11.492188 -12.941406 10.441406 -13.3125 9.140625 -13.3125 C 7.878906 -13.3125 6.828125 -12.941406 5.984375 -12.203125 C 5.148438 -11.460938 4.644531 -10.453125 4.46875 -9.171875 Z M 13.578125 -9.171875 "></path></g></g></g><g fill="#000000" fill-opacity="1"><g transform="translate(46.442827, 46.320284)"><g><path d="M 6 -12.765625 C 6.539062 -13.847656 7.28125 -14.671875 8.21875 -15.234375 C 9.15625 -15.796875 10.253906 -16.078125 11.515625 -16.078125 L 11.515625 -12.765625 C 9.929688 -12.847656 8.648438 -12.476562 7.671875 -11.65625 C 6.691406 -10.84375 6.132812 -9.734375 6 -8.328125 L 6 0 L 2.546875 0 L 2.546875 -15.953125 L 6 -15.953125 Z M 6 -12.765625 "></path></g></g></g><g fill="#000000" fill-opacity="1"><g transform="translate(58.256506, 46.320284)"><g><path d="M 9.390625 -16.078125 C 11.003906 -16.078125 12.441406 -15.734375 13.703125 -15.046875 C 14.960938 -14.367188 15.941406 -13.421875 16.640625 -12.203125 C 17.335938 -10.984375 17.6875 -9.582031 17.6875 -8 C 17.6875 -6.40625 17.335938 -4.992188 16.640625 -3.765625 C 15.941406 -2.535156 14.960938 -1.578125 13.703125 -0.890625 C 12.441406 -0.210938 11.003906 0.125 9.390625 0.125 C 7.742188 0.125 6.289062 -0.210938 5.03125 -0.890625 C 3.769531 -1.578125 2.789062 -2.535156 2.09375 -3.765625 C 1.394531 -4.992188 1.046875 -6.40625 1.046875 -8 C 1.046875 -9.582031 1.394531 -10.984375 2.09375 -12.203125 C 2.789062 -13.421875 3.769531 -14.367188 5.03125 -15.046875 C 6.289062 -15.734375 7.742188 -16.078125 9.390625 -16.078125 Z M 9.390625 -13.140625 C 7.941406 -13.140625 6.765625 -12.648438 5.859375 -11.671875 C 4.953125 -10.703125 4.5 -9.460938 4.5 -7.953125 C 4.5 -6.410156 4.953125 -5.160156 5.859375 -4.203125 C 6.765625 -3.242188 7.941406 -2.765625 9.390625 -2.765625 C 10.828125 -2.765625 11.992188 -3.242188 12.890625 -4.203125 C 13.796875 -5.160156 14.25 -6.410156 14.25 -7.953125 C 14.25 -9.460938 13.789062 -10.703125 12.875 -11.671875 C 11.96875 -12.648438 10.804688 -13.140625 9.390625 -13.140625 Z M 9.390625 -13.140625 "></path></g></g></g><g fill="#000000" fill-opacity="1"><g transform="translate(76.996481, 46.320284)"><g></g></g></g><g fill="#000000" fill-opacity="1"><g transform="translate(85.092151, 46.320284)"><g><path d="M 2.765625 0 L 2.765625 -20.984375 L 6.859375 -20.984375 L 14.125 -6.953125 L 21.3125 -20.984375 L 25.421875 -20.984375 L 25.421875 0 L 22.15625 0 L 22.125 -15.734375 L 15.234375 -2.1875 L 12.984375 -2.1875 L 6.03125 -15.734375 L 6.03125 0 Z M 2.765625 0 "></path></g></g></g><g fill="#000000" fill-opacity="1"><g transform="translate(113.277079, 46.320284)"><g><path d="M 15.5 0 L 12.109375 0 L 12.109375 -1.953125 C 10.972656 -0.546875 9.21875 0.15625 6.84375 0.15625 C 5.71875 0.15625 4.726562 -0.0546875 3.875 -0.484375 C 3.03125 -0.921875 2.378906 -1.515625 1.921875 -2.265625 C 1.460938 -3.015625 1.234375 -3.859375 1.234375 -4.796875 C 1.234375 -6.253906 1.757812 -7.410156 2.8125 -8.265625 C 3.875 -9.128906 5.351562 -9.570312 7.25 -9.59375 L 12.078125 -9.59375 L 12.078125 -10.078125 C 12.078125 -11.097656 11.753906 -11.882812 11.109375 -12.4375 C 10.460938 -13 9.519531 -13.28125 8.28125 -13.28125 C 6.738281 -13.28125 5.164062 -12.738281 3.5625 -11.65625 L 2.15625 -14.0625 C 3.375 -14.78125 4.46875 -15.296875 5.4375 -15.609375 C 6.40625 -15.921875 7.601562 -16.078125 9.03125 -16.078125 C 11.0625 -16.078125 12.632812 -15.582031 13.75 -14.59375 C 14.875 -13.601562 15.445312 -12.226562 15.46875 -10.46875 Z M 7.5625 -2.578125 C 8.78125 -2.578125 9.8125 -2.859375 10.65625 -3.421875 C 11.507812 -3.992188 11.984375 -4.722656 12.078125 -5.609375 L 12.078125 -7.078125 L 7.765625 -7.078125 C 6.628906 -7.078125 5.796875 -6.910156 5.265625 -6.578125 C 4.734375 -6.253906 4.46875 -5.710938 4.46875 -4.953125 C 4.46875 -4.234375 4.738281 -3.65625 5.28125 -3.21875 C 5.832031 -2.789062 6.59375 -2.578125 7.5625 -2.578125 Z M 7.5625 -2.578125 "></path></g></g></g><g fill="#000000" fill-opacity="1"><g transform="translate(130.847681, 46.320284)"><g><path d="M 6 -12.765625 C 6.539062 -13.847656 7.28125 -14.671875 8.21875 -15.234375 C 9.15625 -15.796875 10.253906 -16.078125 11.515625 -16.078125 L 11.515625 -12.765625 C 9.929688 -12.847656 8.648438 -12.476562 7.671875 -11.65625 C 6.691406 -10.84375 6.132812 -9.734375 6 -8.328125 L 6 0 L 2.546875 0 L 2.546875 -15.953125 L 6 -15.953125 Z M 6 -12.765625 "></path></g></g></g><g fill="#000000" fill-opacity="1"><g transform="translate(142.66136, 46.320284)"><g><path d="M 17.59375 0 L 13.515625 0 L 8.84375 -7.3125 L 6.140625 -4.46875 L 6.140625 0 L 2.703125 0 L 2.703125 -22.25 L 6.140625 -22.25 L 6.140625 -8.8125 L 13.1875 -15.953125 L 17.15625 -15.953125 L 11.25 -9.78125 Z M 17.59375 0 "></path></g></g></g><g fill="#000000" fill-opacity="1"><g transform="translate(160.501818, 46.320284)"><g><path d="M 9.109375 -16.078125 C 11.628906 -16.078125 13.515625 -15.363281 14.765625 -13.9375 C 16.015625 -12.519531 16.640625 -10.523438 16.640625 -7.953125 C 16.640625 -7.691406 16.617188 -7.257812 16.578125 -6.65625 L 4.53125 -6.65625 C 4.8125 -5.414062 5.390625 -4.441406 6.265625 -3.734375 C 7.148438 -3.023438 8.21875 -2.671875 9.46875 -2.671875 C 10.332031 -2.671875 11.15625 -2.828125 11.9375 -3.140625 C 12.71875 -3.460938 13.394531 -3.925781 13.96875 -4.53125 L 15.796875 -2.578125 C 15.003906 -1.722656 14.046875 -1.054688 12.921875 -0.578125 C 11.804688 -0.109375 10.566406 0.125 9.203125 0.125 C 7.585938 0.125 6.164062 -0.210938 4.9375 -0.890625 C 3.707031 -1.578125 2.75 -2.53125 2.0625 -3.75 C 1.382812 -4.96875 1.046875 -6.367188 1.046875 -7.953125 C 1.046875 -9.523438 1.382812 -10.925781 2.0625 -12.15625 C 2.75 -13.382812 3.707031 -14.34375 4.9375 -15.03125 C 6.164062 -15.726562 7.554688 -16.078125 9.109375 -16.078125 Z M 13.578125 -9.171875 C 13.523438 -10.453125 13.097656 -11.460938 12.296875 -12.203125 C 11.492188 -12.941406 10.441406 -13.3125 9.140625 -13.3125 C 7.878906 -13.3125 6.828125 -12.941406 5.984375 -12.203125 C 5.148438 -11.460938 4.644531 -10.453125 4.46875 -9.171875 Z M 13.578125 -9.171875 "></path></g></g></g><g fill="#000000" fill-opacity="1"><g transform="translate(178.132389, 46.320284)"><g><path d="M 11.578125 -1.015625 C 10.253906 -0.234375 8.941406 0.15625 7.640625 0.15625 C 6.347656 0.15625 5.28125 -0.234375 4.4375 -1.015625 C 3.59375 -1.796875 3.171875 -2.957031 3.171875 -4.5 L 3.171875 -12.765625 L 0.921875 -12.765625 L 0.921875 -15.359375 L 3.171875 -15.359375 L 3.171875 -19.734375 L 6.59375 -19.734375 L 6.59375 -15.359375 L 11.296875 -15.359375 L 11.296875 -12.765625 L 6.59375 -12.765625 L 6.59375 -5.125 C 6.59375 -4.320312 6.734375 -3.757812 7.015625 -3.4375 C 7.296875 -3.125 7.726562 -2.96875 8.3125 -2.96875 C 8.945312 -2.96875 9.742188 -3.195312 10.703125 -3.65625 Z M 11.578125 -1.015625 "></path></g></g></g><g fill="#000000" fill-opacity="1"><g transform="translate(190.335864, 46.320284)"><g><path d="M 9.109375 -16.078125 C 11.628906 -16.078125 13.515625 -15.363281 14.765625 -13.9375 C 16.015625 -12.519531 16.640625 -10.523438 16.640625 -7.953125 C 16.640625 -7.691406 16.617188 -7.257812 16.578125 -6.65625 L 4.53125 -6.65625 C 4.8125 -5.414062 5.390625 -4.441406 6.265625 -3.734375 C 7.148438 -3.023438 8.21875 -2.671875 9.46875 -2.671875 C 10.332031 -2.671875 11.15625 -2.828125 11.9375 -3.140625 C 12.71875 -3.460938 13.394531 -3.925781 13.96875 -4.53125 L 15.796875 -2.578125 C 15.003906 -1.722656 14.046875 -1.054688 12.921875 -0.578125 C 11.804688 -0.109375 10.566406 0.125 9.203125 0.125 C 7.585938 0.125 6.164062 -0.210938 4.9375 -0.890625 C 3.707031 -1.578125 2.75 -2.53125 2.0625 -3.75 C 1.382812 -4.96875 1.046875 -6.367188 1.046875 -7.953125 C 1.046875 -9.523438 1.382812 -10.925781 2.0625 -12.15625 C 2.75 -13.382812 3.707031 -14.34375 4.9375 -15.03125 C 6.164062 -15.726562 7.554688 -16.078125 9.109375 -16.078125 Z M 13.578125 -9.171875 C 13.523438 -10.453125 13.097656 -11.460938 12.296875 -12.203125 C 11.492188 -12.941406 10.441406 -13.3125 9.140625 -13.3125 C 7.878906 -13.3125 6.828125 -12.941406 5.984375 -12.203125 C 5.148438 -11.460938 4.644531 -10.453125 4.46875 -9.171875 Z M 13.578125 -9.171875 "></path></g></g></g><g fill="#000000" fill-opacity="1"><g transform="translate(207.966446, 46.320284)"><g><path d="M 6 -12.765625 C 6.539062 -13.847656 7.28125 -14.671875 8.21875 -15.234375 C 9.15625 -15.796875 10.253906 -16.078125 11.515625 -16.078125 L 11.515625 -12.765625 C 9.929688 -12.847656 8.648438 -12.476562 7.671875 -11.65625 C 6.691406 -10.84375 6.132812 -9.734375 6 -8.328125 L 6 0 L 2.546875 0 L 2.546875 -15.953125 L 6 -15.953125 Z M 6 -12.765625 "></path></g></g></g></svg>